<svg xmlns="http://www.w3.org/2000/svg" width="25" height="25" viewBox="0 0 22 22">
  <g id="Grupo_2751" data-name="Grupo 2751" transform="translate(727 487)">
    <rect id="Retângulo_11" data-name="Retângulo 11" width="22" height="22" transform="translate(-727 -487)" fill="none"/>
    <path id="Caminho_16" data-name="Caminho 16" d="M11.623,8c-5.549,0-9.48,5.072-9.48,5.072a.688.688,0,0,0,0,.857S6.074,19,11.623,19s9.48-5.072,9.48-5.072a.688.688,0,0,0,0-.857S17.172,8,11.623,8Zm0,1.375c4.246,0,7.332,3.422,7.944,4.125-.612.7-3.7,4.125-7.944,4.125S4.291,14.2,3.679,13.5C4.291,12.8,7.376,9.375,11.623,9.375Z" transform="translate(-727.623 -489.5)" fill="#FFF"/>
    <path id="Caminho_17" data-name="Caminho 17" d="M14.75,12a2.75,2.75,0,1,0,2.75,2.75A2.76,2.76,0,0,0,14.75,12Zm0,1.375a1.375,1.375,0,1,1-1.375,1.375A1.365,1.365,0,0,1,14.75,13.375Z" transform="translate(-730.75 -490.75)" fill="#FFF"/>
  </g>
</svg>
